# xmcd
#
# Track frame offsets: 
#        150
#        4583
#        18763
#        28420
#        43315
#        59251
#        74097
#        93942
#        111141
#        124420
#        133545
#        148940
#        168853
#
# Disc length: 2466 seconds
#
# Revision: 0
# Processed by: cddbd v1.5.2PL0 Copyright (c) Steve Scherf et al.
# Submitted via: ExactAudioCopy v0.95b3
#
DISCID=ba09a00d
DTITLE=Flo and Eddie  - The Phlorescent Leech and Eddie (1972)  FLAC
DYEAR=1900
DGENRE=
TTITLE0=Flo and Eddie Theme
TTITLE1=Thoughts Have Turned
TTITLE2=It Never Happened
TTITLE3=Burn The House
TTITLE4=Lady Blue
TTITLE5=Strange Girl
TTITLE6=Who But I
TTITLE7=I Been Born Again
TTITLE8=Goodbye Surprise
TTITLE9=Nikki Hoi
TTITLE10=Really Love
TTITLE11=Feel Older Now
TTITLE12=There You Sit Lonely
EXTD=
EXTT0=
EXTT1=
EXTT2=
EXTT3=
EXTT4=
EXTT5=
EXTT6=
EXTT7=
EXTT8=
EXTT9=
EXTT10=
EXTT11=
EXTT12=
PLAYORDER=
